<svg width="128" height="128" viewBox="0 0 128 128" fill="none" xmlns="http://www.w3.org/2000/svg">
<g clip-path="url(#clip0_26_23)">
<path d="M115.848 0H12.1519C5.44059 0 0 5.54589 0 12.3871V115.613C0 122.454 5.44059 128 12.1519 128H115.848C122.559 128 128 122.454 128 115.613V12.3871C128 5.54589 122.559 0 115.848 0Z" fill="#080808"/>
<path d="M78.8999 106.43C73.6462 106.43 70.0511 105.303 68.1154 103.047C66.1798 100.792 65.212 97.4097 65.212 92.8999V68.1654H56.7089V59.0749H61.0641C62.3776 59.0749 63.3108 58.8635 63.8639 58.4407C64.4861 58.0179 64.9355 57.1722 65.212 55.9038L67.2859 44.5936H77.8629V59.0749H99.4317V68.1654H77.8629V93.0056C77.8629 94.7671 78.2777 95.9298 79.1072 96.4938C79.9368 97.0579 81.1812 97.3395 82.8403 97.3395H97.4615L98.4984 105.373C97.0467 105.584 94.8342 105.831 91.8619 106.113C88.8895 106.324 85.6401 106.43 82.1144 106.43H78.8999Z" fill="#FFFDFD"/>
<path d="M94.3311 52.7525H88.6602V75.0493H94.3311V52.7525Z" fill="#080808"/>
</g>
<defs>
<clipPath id="clip0_26_23">
<rect width="128" height="128" fill="white"/>
</clipPath>
</defs>
</svg>
