<svg width="144" height="144" viewBox="0 0 144 144" fill="none" xmlns="http://www.w3.org/2000/svg">
<g clip-path="url(#clip0_25_2)">
<path d="M130.329 0H13.6709C6.12066 0 0 6.23913 0 13.9355V130.065C0 137.761 6.12066 144 13.6709 144H130.329C137.879 144 144 137.761 144 130.065V13.9355C144 6.23913 137.879 0 130.329 0Z" fill="#080808"/>
<path d="M88.7623 119.734C82.852 119.734 78.8075 118.466 76.6299 115.928C74.4523 113.391 73.3634 109.586 73.3634 104.512V76.686H63.7975V66.4592H68.6971C70.1748 66.4592 71.2247 66.2214 71.8469 65.7458C72.5468 65.2701 73.0524 64.3188 73.3634 62.8918L75.6966 50.1677H87.5957V66.4592H111.861V76.686H87.5957V104.631C87.5957 106.613 88.0624 107.921 88.9957 108.556C89.9289 109.19 91.3288 109.507 93.1953 109.507H109.644L110.811 118.545C109.178 118.782 106.689 119.06 103.345 119.377C100.001 119.615 96.3451 119.734 92.3787 119.734H88.7623Z" fill="#FFFDFD"/>
<path d="M106.123 59.3466H99.7428V84.4305H106.123V59.3466Z" fill="#080808"/>
</g>
<defs>
<clipPath id="clip0_25_2">
<rect width="144" height="144" fill="white"/>
</clipPath>
</defs>
</svg>
