<svg width="152" height="152" viewBox="0 0 152 152" fill="none" xmlns="http://www.w3.org/2000/svg">
<g clip-path="url(#clip0_26_44)">
<path d="M137.57 0H14.4304C6.4607 0 0 6.58575 0 14.7097V137.29C0 145.414 6.4607 152 14.4304 152H137.57C145.539 152 152 145.414 152 137.29V14.7097C152 6.58575 145.539 0 137.57 0Z" fill="#080808"/>
<path d="M93.6936 126.386C87.4548 126.386 83.1857 125.047 80.8871 122.369C78.5885 119.691 77.4392 115.674 77.4392 110.319V80.9464H67.3418V70.1514H72.5136C74.0733 70.1514 75.1816 69.9004 75.8384 69.3983C76.5772 68.8962 77.1108 67.892 77.4392 66.3858L79.902 52.9548H92.4622V70.1514H118.075V80.9464H92.4622V110.444C92.4622 112.536 92.9547 113.917 93.9398 114.586C94.925 115.256 96.4026 115.591 98.3729 115.591H115.735L116.967 125.13C115.243 125.381 112.616 125.675 109.086 126.009C105.556 126.26 101.698 126.386 97.5109 126.386H93.6936Z" fill="#FFFDFD"/>
<path d="M112.018 62.6436H105.284V89.121H112.018V62.6436Z" fill="#080808"/>
</g>
<defs>
<clipPath id="clip0_26_44">
<rect width="152" height="152" fill="white"/>
</clipPath>
</defs>
</svg>
