<svg width="192" height="192" viewBox="0 0 192 192" fill="none" xmlns="http://www.w3.org/2000/svg">
<g clip-path="url(#clip0_26_37)">
<path d="M173.772 0H18.2278C8.16088 0 0 8.31884 0 18.5806V173.419C0 183.681 8.16088 192 18.2278 192H173.772C183.839 192 192 183.681 192 173.419V18.5806C192 8.31884 183.839 0 173.772 0Z" fill="#080808"/>
<path d="M118.35 159.645C110.469 159.645 105.077 157.954 102.173 154.571C99.2697 151.188 97.8179 146.114 97.8179 139.35V102.248H85.0633V88.6123H91.5962C93.5663 88.6123 94.9662 88.2952 95.7959 87.661C96.7291 87.0268 97.4032 85.7583 97.8179 83.8557L100.929 66.8903H116.794V88.6123H149.148V102.248H116.794V139.508C116.794 142.151 117.417 143.895 118.661 144.741C119.905 145.587 121.772 146.009 124.26 146.009H146.192L147.748 158.059C145.57 158.376 142.251 158.747 137.793 159.169C133.334 159.486 128.46 159.645 123.172 159.645H118.35Z" fill="#FFFDFD"/>
<path d="M141.497 79.1288H132.99V112.574H141.497V79.1288Z" fill="#080808"/>
</g>
<defs>
<clipPath id="clip0_26_37">
<rect width="192" height="192" fill="white"/>
</clipPath>
</defs>
</svg>
