<svg width="384" height="384" viewBox="0 0 384 384" fill="none" xmlns="http://www.w3.org/2000/svg">
<g clip-path="url(#clip0_26_30)">
<path d="M347.544 0H36.4557C16.3218 0 0 16.6377 0 37.1613V346.839C0 367.362 16.3218 384 36.4557 384H347.544C367.678 384 384 367.362 384 346.839V37.1613C384 16.6377 367.678 0 347.544 0Z" fill="#080808"/>
<path d="M236.7 319.29C220.939 319.29 210.153 315.908 204.346 309.142C198.539 302.376 195.636 292.229 195.636 278.7V204.496H170.127V177.225H183.192C187.133 177.225 189.932 176.59 191.592 175.322C193.458 174.054 194.806 171.517 195.636 167.711L201.858 133.781H233.589V177.225H298.295V204.496H233.589V279.017C233.589 284.301 234.833 287.789 237.322 289.482C239.81 291.174 243.544 292.018 248.521 292.018H292.384L295.495 316.119C291.14 316.753 284.503 317.494 275.586 318.338C266.669 318.973 256.92 319.29 246.343 319.29H236.7Z" fill="#FFFDFD"/>
<path d="M282.993 158.258H265.981V225.148H282.993V158.258Z" fill="#080808"/>
</g>
<defs>
<clipPath id="clip0_26_30">
<rect width="384" height="384" fill="white"/>
</clipPath>
</defs>
</svg>
