<svg width="512" height="512" viewBox="0 0 512 512" fill="none" xmlns="http://www.w3.org/2000/svg">
<g clip-path="url(#clip0_21_2)">
<path d="M463.392 0H48.6076C21.7624 0 0 22.1836 0 49.5484V462.452C0 489.816 21.7624 512 48.6076 512H463.392C490.238 512 512 489.816 512 462.452V49.5484C512 22.1836 490.238 0 463.392 0Z" fill="#080808"/>
<path d="M315.599 425.72C294.585 425.72 280.204 421.211 272.462 412.19C264.719 403.169 260.848 389.639 260.848 371.6V272.661H226.835V236.3H244.256C249.51 236.3 253.243 235.454 255.456 233.763C257.944 232.071 259.742 228.689 260.848 223.615L269.144 178.374H311.452V236.3H397.727V272.661H311.452V372.023C311.452 379.068 313.111 383.719 316.429 385.975C319.747 388.231 324.725 389.358 331.361 389.358H389.846L393.994 421.492C388.187 422.337 379.337 423.325 367.448 424.451C355.558 425.297 342.56 425.72 328.458 425.72H315.599Z" fill="#FFFDFD"/>
<path d="M377.325 211.01H354.641V300.197H377.325V211.01Z" fill="#080808"/>
</g>
<defs>
<clipPath id="clip0_21_2">
<rect width="512" height="512" fill="white"/>
</clipPath>
</defs>
</svg>
