<svg width="96" height="96" viewBox="0 0 96 96" fill="none" xmlns="http://www.w3.org/2000/svg">
<g clip-path="url(#clip0_26_16)">
<path d="M86.8861 0H9.11392C4.08044 0 0 4.15942 0 9.29032V86.7097C0 91.8406 4.08044 96 9.11392 96H86.8861C91.9196 96 96 91.8406 96 86.7097V9.29032C96 4.15942 91.9196 0 86.8861 0Z" fill="#080808"/>
<path d="M59.1749 79.8225C55.2346 79.8225 52.5383 78.977 51.0866 77.2856C49.6349 75.5941 48.909 73.0572 48.909 69.6749V51.124H42.5316V44.3062H45.7981C46.7832 44.3062 47.4831 44.1476 47.8979 43.8305C48.3646 43.5134 48.7016 42.8792 48.909 41.9278L50.4644 33.4452H58.3972V44.3062H74.5738V51.124H58.3972V69.7542C58.3972 71.0753 58.7083 71.9474 59.3304 72.3704C59.9526 72.7934 60.8859 73.0046 62.1302 73.0046H73.0961L73.8738 79.0297C72.785 79.1882 71.1257 79.3734 68.8964 79.5846C66.6671 79.7432 64.2301 79.8225 61.5858 79.8225H59.1749Z" fill="#FFFDFD"/>
<path d="M70.7484 39.5644H66.4952V56.287H70.7484V39.5644Z" fill="#080808"/>
</g>
<defs>
<clipPath id="clip0_26_16">
<rect width="96" height="96" fill="white"/>
</clipPath>
</defs>
</svg>
