<svg width="158" height="155" viewBox="0 0 158 155" fill="none" xmlns="http://www.w3.org/2000/svg">
<g style="mix-blend-mode:darken">
<rect width="158" height="155" rx="15" fill="#84B1D1"/>
</g>
<path d="M108.952 134C102.467 134 98.0293 132.635 95.64 129.904C93.2507 127.173 92.056 123.077 92.056 117.616V87.664H81.56V76.656H86.936C88.5573 76.656 89.7093 76.4 90.392 75.888C91.16 75.376 91.7147 74.352 92.056 72.816L94.616 59.12H107.672V76.656H134.296V87.664H107.672V117.744C107.672 119.877 108.184 121.285 109.208 121.968C110.232 122.651 111.768 122.992 113.816 122.992H131.864L133.144 132.72C131.352 132.976 128.621 133.275 124.952 133.616C121.283 133.872 117.272 134 112.92 134H108.952Z" fill="#FFFDFD"/>
<rect x="121" y="69" width="7" height="27" fill="#84B1D1"/>
</svg>
