<?xml version="1.0" standalone="no"?>
<!DOCTYPE svg PUBLIC "-//W3C//DTD SVG 20010904//EN"
 "http://www.w3.org/TR/2001/REC-SVG-20010904/DTD/svg10.dtd">
<svg version="1.0" xmlns="http://www.w3.org/2000/svg"
 width="913.000000pt" height="1203.000000pt" viewBox="0 0 913.000000 1203.000000"
 preserveAspectRatio="xMidYMid meet">
<metadata>
Created by potrace 1.16, written by Peter Selinger 2001-2019
</metadata>
<g transform="translate(0.000000,1203.000000) scale(0.100000,-0.100000)"
fill="#000000" stroke="none">
<path d="M4215 10949 c-16 -5 -60 -6 -96 -3 -91 9 -184 -14 -310 -77 -119 -59
-177 -79 -235 -79 -31 0 -72 -15 -160 -61 -124 -64 -195 -112 -254 -174 -19
-20 -49 -43 -67 -50 -46 -19 -133 -88 -168 -132 -86 -109 -106 -147 -165 -318
-49 -142 -55 -232 -21 -310 11 -25 22 -45 24 -45 2 0 21 27 41 60 30 49 49 66
104 97 37 20 82 48 101 60 19 13 41 23 51 23 9 0 26 10 37 23 41 43 71 64 94
62 13 -1 33 4 46 10 15 8 41 9 80 4 65 -9 165 4 197 27 11 8 29 14 40 14 10 0
25 8 31 17 12 17 14 17 35 -2 14 -12 34 -19 58 -18 90 4 169 12 192 21 16 6
33 6 46 0 13 -6 40 -6 73 0 49 9 53 8 68 -15 9 -14 18 -50 21 -81 2 -32 10
-70 17 -87 7 -16 16 -41 20 -55 l7 -25 -21 24 c-25 29 -27 21 -4 -22 14 -27
14 -30 1 -19 -13 10 -17 10 -22 -3 -6 -17 2 -45 13 -45 4 0 13 -11 19 -25 7
-15 8 -25 2 -25 -6 0 -10 5 -10 12 0 6 -3 9 -6 6 -3 -4 2 -18 11 -32 10 -16
14 -33 10 -47 -5 -16 -4 -19 5 -14 9 6 11 4 6 -4 -11 -17 22 -51 48 -51 24 0
95 -24 137 -45 16 -9 32 -14 36 -13 14 3 143 -64 143 -75 0 -19 51 -77 81 -93
22 -11 34 -12 43 -5 16 13 30 -1 39 -36 3 -16 1 -23 -9 -23 -20 0 -17 -24 5
-44 22 -20 47 -12 55 17 6 21 7 21 22 -5 8 -16 21 -28 29 -28 19 0 19 16 0 24
-8 3 -15 15 -15 26 0 11 -6 20 -13 20 -12 0 -47 34 -47 45 0 3 11 -2 25 -11
20 -13 25 -13 25 -3 1 8 10 3 23 -12 22 -26 67 -45 67 -29 0 5 -5 10 -11 12
-16 5 0 35 23 42 12 3 29 1 37 -4 13 -7 10 -9 -11 -10 -37 0 -36 -19 2 -27 17
-3 33 -10 36 -14 3 -5 12 -9 21 -9 9 0 24 -6 32 -14 14 -13 27 -5 111 70 121
107 158 127 235 128 156 2 295 -153 295 -330 0 -93 -47 -417 -72 -494 -21 -64
-58 -140 -83 -170 -7 -8 -20 -28 -28 -45 -23 -45 -67 -87 -124 -117 -46 -25
-61 -28 -147 -28 -91 0 -96 -1 -85 -18 8 -12 9 -30 4 -48 -5 -16 -7 -33 -6
-38 2 -10 -19 -36 -30 -36 -5 0 -9 11 -9 25 0 14 -4 25 -10 25 -5 0 -10 -6
-10 -14 0 -8 -7 -16 -14 -19 -10 -4 -13 -1 -9 9 7 19 -37 15 -61 -5 -20 -17
-33 -7 -17 13 10 12 8 17 -9 26 -17 9 -26 8 -45 -4 -32 -21 -35 -20 -36 12
l-1 27 -8 -25 -8 -25 -7 23 c-4 13 -13 21 -19 19 -11 -4 -11 -12 0 -59 10 -42
-11 -34 -24 9 -8 27 -8 40 0 50 6 7 8 17 4 20 -4 4 -11 2 -15 -5 -4 -7 -15
-10 -24 -6 -21 8 -21 -5 -2 -42 8 -16 14 -38 14 -49 -1 -13 -6 -8 -16 18 -21
49 -37 48 -28 -2 6 -36 5 -40 -14 -38 -12 1 -19 7 -17 13 4 11 -33 28 -42 19
-2 -2 3 -26 11 -54 17 -58 8 -68 -17 -18 -19 39 -20 22 -3 -59 7 -34 13 -79
12 -102 -1 -22 3 -39 7 -36 4 3 8 19 8 37 0 44 18 22 22 -28 2 -22 6 -42 10
-45 14 -11 -8 -65 -25 -64 -10 1 -17 -4 -17 -12 0 -8 -4 -14 -10 -14 -5 0 -10
5 -10 11 0 5 -5 7 -10 4 -6 -4 -8 -11 -5 -16 11 -16 -5 -31 -20 -19 -10 8 -15
8 -20 0 -4 -6 1 -17 10 -24 13 -9 16 -23 12 -60 -4 -41 -17 -78 -17 -50 0 5
-9 10 -20 10 -11 0 -20 -6 -20 -12 0 -7 9 -16 20 -19 23 -7 27 -25 5 -25 -10
0 -15 -10 -16 -27 0 -16 -3 -22 -6 -15 -7 19 -25 14 -19 -5 3 -10 1 -25 -4
-33 -5 -9 -5 -19 1 -27 7 -8 7 -18 1 -29 -8 -14 -10 -10 -16 18 -3 20 -4 44 0
54 5 16 4 16 -5 4 -6 -8 -11 -29 -11 -46 0 -24 -4 -31 -17 -30 -10 0 -21 6
-25 11 -5 6 -8 4 -8 -4 0 -8 -11 0 -25 19 -14 19 -25 45 -25 58 0 13 -6 30
-14 37 -12 12 -15 11 -20 -8 -9 -33 -7 -44 4 -27 8 13 10 13 10 -2 0 -9 -4
-20 -10 -23 -19 -12 -30 88 -15 139 l8 29 -27 -19 c-14 -11 -24 -26 -22 -35 2
-9 0 -23 -5 -31 -5 -9 -11 -37 -14 -64 -7 -56 -11 -64 -31 -64 -10 0 -12 5 -7
13 11 17 12 67 2 67 -5 0 -9 -13 -9 -29 0 -17 -4 -33 -10 -36 -5 -3 -10 -14
-10 -23 0 -10 -12 -25 -26 -33 -25 -15 -28 -15 -50 4 -13 11 -24 26 -24 33 0
6 -10 18 -22 26 -21 14 -22 16 -5 33 10 9 16 25 13 34 -2 9 -7 30 -11 48 -3
17 -14 38 -23 45 -14 11 -15 11 -8 -7 9 -20 9 -59 1 -150 -3 -33 -2 -45 5 -35
5 8 12 11 17 7 4 -4 2 -17 -5 -27 -7 -12 -8 -20 -2 -20 5 0 10 -9 10 -21 0
-15 -5 -19 -15 -15 -12 4 -14 0 -8 -22 4 -15 7 -37 8 -49 0 -14 6 -23 15 -23
27 0 60 -73 39 -85 -5 -4 -9 2 -10 12 0 10 -7 -3 -15 -28 -10 -33 -24 -53 -48
-70 -22 -15 -36 -34 -38 -49 -2 -14 -10 -26 -18 -26 -8 -1 -21 -2 -27 -3 -7 0
-13 -12 -13 -26 0 -16 4 -23 14 -19 8 3 16 -3 19 -16 4 -17 2 -20 -10 -16 -13
5 -14 1 -9 -26 6 -32 6 -33 -9 -10 -13 18 -19 20 -29 10 -7 -7 -15 -21 -19
-30 -7 -19 -27 -25 -27 -8 0 19 -35 6 -52 -20 -10 -14 -18 -19 -18 -12 0 25
-21 11 -27 -18 -3 -17 -8 -29 -10 -26 -3 3 -14 -4 -26 -15 -11 -10 -27 -19
-35 -19 -9 0 -6 7 9 21 21 18 21 20 4 13 -11 -4 -38 -9 -60 -12 -22 -2 -44 -8
-49 -13 -18 -17 -26 -9 -20 18 l7 27 -29 -29 c-23 -23 -30 -26 -32 -13 -3 15
-6 15 -35 -2 -38 -24 -51 -25 -43 -5 3 9 0 15 -8 15 -9 0 -12 7 -9 20 3 11 1
20 -5 20 -16 0 -32 67 -32 133 l0 59 39 -7 c30 -5 40 -3 44 9 4 9 18 16 33 16
29 0 53 24 54 53 0 9 5 17 12 17 6 0 9 3 6 6 -4 3 -2 19 2 35 9 30 -6 42 -17
13 -3 -9 -13 -14 -24 -11 -10 3 -19 1 -21 -5 -2 -5 -18 -10 -35 -10 -19 -1
-30 -5 -26 -11 4 -7 0 -7 -13 -2 -10 5 -46 9 -78 10 -52 2 -62 5 -84 31 -27
33 -27 39 3 -66 20 -70 37 -152 38 -187 1 -18 5 -33 10 -33 12 0 8 -67 -5 -96
-9 -19 -9 -29 -2 -31 6 -2 9 -17 6 -33 -2 -16 -1 -38 2 -47 6 -15 8 -15 16 -3
7 12 10 11 16 -4 4 -11 2 -21 -7 -27 -8 -5 -10 -9 -6 -9 5 0 0 -13 -9 -29 -11
-18 -34 -36 -62 -47 -25 -9 -97 -51 -161 -94 -155 -103 -179 -118 -328 -202
-130 -74 -525 -274 -599 -303 -38 -15 -82 -56 -209 -195 -160 -174 -287 -373
-364 -567 -21 -55 -80 -259 -106 -368 -9 -38 -32 -118 -51 -177 -41 -130 -51
-224 -31 -290 13 -43 13 -61 -9 -210 -13 -90 -31 -215 -39 -278 -33 -250 -93
-624 -173 -1090 -39 -229 -7 -1118 54 -1475 70 -415 114 -574 218 -790 82
-171 134 -256 178 -294 94 -80 128 -86 362 -65 162 14 409 14 424 0 2 -3 -5
-24 -16 -48 -11 -24 -22 -58 -26 -75 l-5 -33 2232 0 2233 0 22 44 c12 24 22
52 22 63 0 34 16 40 98 31 227 -23 543 -76 743 -123 39 -9 113 -15 187 -15
196 0 221 20 409 330 107 178 177 358 223 580 25 121 25 121 107 228 74 98
137 210 154 275 16 56 3 116 -36 175 -36 55 -39 88 -15 162 35 109 36 167 1
340 -17 85 -44 239 -61 343 -34 207 -38 227 -103 442 -56 186 -100 343 -168
600 -49 186 -53 211 -59 355 -6 135 -11 168 -39 255 -53 167 -59 192 -71 308
-30 286 -105 603 -204 860 -42 110 -100 226 -156 317 -29 47 -71 116 -94 154
-22 37 -50 73 -62 78 -12 6 -25 21 -28 33 -4 15 -25 30 -68 50 -35 15 -98 50
-141 77 -58 37 -716 368 -731 368 -10 0 -362 195 -463 256 -69 42 -148 85
-174 96 -27 12 -49 24 -49 28 0 5 -64 104 -143 221 -78 118 -175 265 -215 327
-80 124 -105 145 -192 163 -77 15 -107 28 -91 39 18 11 6 90 -18 122 -15 20
-18 49 -20 218 -3 294 11 373 114 650 75 200 94 280 110 455 8 88 19 179 25
203 6 24 13 85 16 135 8 117 8 99 -1 262 -3 77 -8 178 -10 225 -5 113 -5 108
-21 169 -9 29 -13 59 -10 66 2 7 -9 25 -25 39 -16 14 -29 31 -29 37 0 6 -16
33 -36 60 -29 40 -33 52 -25 68 15 27 14 32 -6 29 -14 -2 -17 3 -15 20 2 12
-1 22 -7 22 -6 0 -8 7 -5 15 4 8 1 15 -6 15 -9 0 -11 11 -7 34 6 38 -4 52 -42
54 -28 1 -32 4 -34 30 0 11 -4 19 -8 17 -3 -3 -15 11 -25 30 -10 19 -23 35
-29 35 -6 0 -19 15 -29 33 -66 113 -337 301 -462 320 -17 3 -40 9 -50 15 -50
26 -180 62 -279 77 -60 10 -130 23 -154 31 -50 16 -101 17 -146 3z m1060
-3117 c7 -48 17 -78 31 -94 12 -13 19 -29 17 -35 -3 -8 4 -13 15 -13 11 0 22
6 25 13 2 6 4 -7 4 -31 0 -39 -1 -41 -17 -27 -22 20 -42 19 -38 -2 2 -13 12
-18 33 -18 28 1 30 4 33 43 2 23 7 42 12 42 4 0 6 -33 3 -74 -4 -60 -2 -74 11
-79 29 -11 19 -36 -14 -34 -16 1 -30 8 -30 15 0 6 -4 12 -10 12 -13 0 -13 -23
2 -55 6 -14 17 -24 23 -22 6 3 12 -7 13 -21 1 -14 7 -31 13 -38 6 -8 8 -14 3
-14 -5 0 -3 -4 3 -8 7 -4 14 -25 15 -45 2 -25 7 -36 16 -32 7 2 15 -3 18 -13
4 -9 12 -30 19 -47 7 -16 15 -37 18 -45 4 -11 6 -10 7 5 1 12 5 6 10 -15 5
-22 5 -40 -2 -48 -8 -9 -8 -20 0 -37 7 -14 7 -27 2 -30 -5 -3 -7 -12 -3 -21 8
-22 -16 -100 -38 -120 -11 -9 -19 -23 -19 -30 0 -7 -9 -19 -20 -27 -25 -18
-35 -80 -20 -137 18 -73 39 -211 40 -262 0 -93 -60 -216 -137 -276 -28 -23
-84 -80 -124 -127 -39 -47 -86 -93 -103 -102 -58 -29 -96 -64 -153 -141 -31
-42 -64 -84 -72 -94 -9 -9 -43 -48 -76 -87 -33 -38 -65 -72 -71 -74 -6 -3 -32
19 -57 50 -26 30 -91 103 -146 161 -125 136 -147 162 -155 190 -4 13 -48 66
-97 118 -97 104 -127 147 -212 306 l-57 107 52 15 c29 8 72 20 96 26 23 6 42
15 42 19 0 5 18 16 39 25 39 15 121 86 121 105 0 5 8 12 18 16 9 3 37 24 62
46 25 22 55 42 68 45 12 4 22 12 22 20 0 17 -5 17 -31 3 -18 -9 -19 -8 -7 10
6 11 14 19 17 19 21 -2 31 4 31 17 0 8 7 15 15 15 8 0 15 5 15 10 0 6 9 19 20
30 11 11 20 27 20 35 0 8 11 17 24 21 18 4 27 16 33 42 7 29 14 37 29 35 16
-2 25 10 41 47 16 37 27 50 42 50 11 0 25 9 31 21 14 26 51 63 65 65 5 0 18 2
28 2 9 1 17 7 17 13 0 5 -4 7 -10 4 -14 -9 -12 21 3 45 10 17 9 22 -3 30 -12
8 -10 10 10 10 22 0 30 10 54 63 16 34 39 75 52 90 13 16 24 36 24 45 0 10 9
23 20 30 11 7 20 21 20 31 0 12 9 21 24 25 18 4 23 11 19 26 -3 12 1 22 11 26
12 4 13 10 6 24 -8 15 -6 20 10 25 22 7 27 30 9 41 -7 4 2 13 20 21 25 13 31
22 31 47 0 30 28 57 55 51 6 -1 15 -33 20 -73z m1285 -4852 c46 -18 86 -27
128 -29 21 -1 32 -44 14 -57 -9 -6 -13 -18 -9 -28 5 -13 0 -16 -26 -16 -40 0
-77 -10 -77 -20 0 -5 31 -14 70 -20 58 -10 73 -16 90 -40 11 -15 20 -34 20
-41 0 -7 12 -30 26 -50 14 -21 28 -57 30 -81 3 -24 10 -60 16 -80 9 -29 8 -41
-3 -54 -11 -14 -11 -18 4 -29 49 -36 73 -157 55 -278 -13 -85 -19 -90 -101
-82 -93 9 -141 21 -158 41 -7 8 -34 26 -61 40 -59 30 -119 31 -192 3 -62 -23
-173 -24 -169 -1 3 14 -43 17 -52 2 -10 -16 -52 -12 -59 6 -3 9 -6 30 -6 48 0
24 6 36 25 46 13 7 22 17 19 21 -3 5 -1 25 5 44 10 39 0 48 -16 13 l-10 -23
-12 24 c-8 15 -9 21 -2 17 12 -8 13 -4 16 70 1 36 10 66 30 100 38 64 79 150
94 194 6 20 24 49 39 66 16 17 36 53 47 80 10 27 37 68 60 92 50 49 84 54 165
22z m-3300 -271 c0 -6 7 -9 15 -5 8 3 15 1 15 -4 0 -15 112 -33 170 -27 31 4
65 4 77 1 21 -6 20 -9 -25 -92 -25 -48 -62 -114 -82 -147 -64 -106 -127 -229
-144 -280 -23 -72 -28 -421 -6 -435 29 -18 2 -20 -56 -4 -32 9 -95 24 -139 35
-212 50 -230 61 -228 132 2 82 40 307 62 360 6 16 11 43 11 60 0 18 7 41 15
51 8 11 15 28 15 38 0 10 7 29 15 42 9 13 18 39 20 57 12 100 32 162 52 165
37 5 75 19 84 30 6 8 22 14 35 14 12 0 26 5 29 10 8 14 65 13 65 -1z m745
-1279 c17 -12 129 -53 150 -55 11 -1 26 -13 33 -28 7 -14 47 -55 90 -90 77
-65 150 -138 122 -122 -63 36 -392 268 -435 307 -11 10 24 -1 40 -12z"/>
<path d="M3212 9080 c-10 -27 -30 -40 -61 -40 -16 0 -33 -4 -36 -10 -3 -5 0
-10 7 -10 7 0 -2 -10 -19 -21 -34 -22 -43 -39 -20 -39 8 0 24 -11 37 -25 16
-17 30 -23 43 -19 14 4 17 3 12 -7 -6 -9 -3 -11 9 -6 14 6 16 3 12 -16 -3 -12
-3 -16 0 -9 3 6 14 12 25 12 11 0 19 7 19 18 0 9 9 23 21 30 12 8 18 19 15 28
-3 8 -2 13 2 10 4 -2 27 4 50 14 40 18 54 42 32 55 -8 5 -8 11 0 20 16 19 -14
29 -84 30 -43 0 -60 -4 -64 -15z"/>
<path d="M5000 8906 c0 -9 18 -39 40 -67 49 -63 55 -82 43 -162 -10 -70 -8
-87 11 -87 18 0 46 33 46 54 0 11 4 14 12 10 8 -5 9 -2 5 9 -4 11 1 20 13 27
31 17 26 70 -8 103 -16 15 -31 24 -35 20 -4 -3 -7 1 -7 10 0 10 -6 17 -14 17
-7 0 -34 18 -60 41 -32 28 -46 36 -46 25z"/>
<path d="M2645 8868 c-20 -30 -10 -133 16 -161 16 -17 23 -18 66 -8 69 15 166
12 159 -5 -3 -8 -1 -14 4 -14 6 0 10 -8 10 -18 0 -11 -16 -28 -40 -41 -42 -23
-75 -62 -68 -81 2 -6 19 1 40 15 42 29 58 31 58 10 0 -8 -12 -18 -27 -21 -30
-8 -41 -17 -60 -51 -14 -25 -8 -53 12 -53 27 0 73 22 79 38 3 9 14 28 25 42
26 32 40 123 19 115 -12 -5 -16 5 -21 41 -5 49 -18 64 -54 64 -13 0 -23 4 -23
9 0 5 -8 12 -17 15 -10 3 -40 33 -67 66 -55 66 -84 76 -111 38z"/>
<path d="M3210 8861 c0 -6 7 -11 15 -11 8 0 15 -4 15 -10 0 -5 -6 -10 -14 -10
-8 0 -13 -10 -13 -25 0 -18 5 -25 21 -26 17 -1 17 -2 4 -6 -25 -6 -23 -23 3
-23 11 0 17 -4 14 -10 -9 -15 4 -12 21 4 8 8 14 21 14 28 0 8 9 14 20 15 22 2
27 -12 8 -20 -8 -4 -4 -8 10 -13 21 -6 22 -8 7 -24 -15 -16 -13 -18 20 -24 20
-4 43 -10 51 -13 8 -3 14 1 14 9 0 21 47 40 109 43 30 2 57 9 61 15 4 7 10 11
14 11 35 -5 56 1 57 17 0 9 3 12 5 5 4 -7 14 -9 32 -3 71 21 76 33 19 44 -30
6 -317 -36 -337 -49 -11 -7 -20 19 -12 32 4 5 16 13 27 18 16 7 10 10 -30 16
-27 4 -74 10 -102 14 -38 6 -53 4 -53 -4z"/>
<path d="M3255 8002 c-71 -7 -157 -46 -198 -89 -23 -24 -45 -43 -50 -43 -12 0
-37 -26 -37 -39 0 -6 -5 -11 -11 -11 -5 0 -7 -5 -4 -11 4 -6 32 -9 65 -7 32 1
62 -1 66 -5 4 -4 -3 -7 -15 -7 l-23 0 21 -17 c20 -17 20 -19 4 -51 -12 -25
-13 -36 -4 -45 8 -8 14 -8 23 1 7 7 24 12 38 12 14 0 31 5 37 11 7 7 29 12 49
13 47 1 68 28 39 50 -14 10 -24 11 -32 4 -9 -7 -13 -7 -13 1 0 8 -5 9 -19 1
-33 -17 -38 24 -7 65 23 30 33 55 22 55 -2 0 -20 -7 -40 -15 -20 -8 -36 -12
-36 -7 0 18 33 52 50 52 10 0 25 6 33 14 8 8 31 26 51 40 40 27 38 33 -9 28z"/>
</g>
</svg>
